<svg xmlns="http://www.w3.org/2000/svg" viewBox="0 0 170.89 29.38"><defs><style>.cls-1{fill:#fff;}</style></defs><title>abbvie</title><g id="Layer_2" data-name="Layer 2"><g id="Layer_1-2" data-name="Layer 1"><path class="cls-1" d="M97.6,7.27A5.69,5.69,0,0,1,103.74,10l11.37,15.77L126.82,9.55a6.29,6.29,0,0,1,5.53-2.22L117,28.08a2.91,2.91,0,0,1-2.12,1.3S114,29.38,113,28,97.6,7.27,97.6,7.27Zm37.79.11V27.05s.26,2.12,3.05,2V9.7S138.44,7.74,135.39,7.38ZM137.05.56a2,2,0,0,0-1.83,2.11,1.85,1.85,0,1,0,3.66,0A2,2,0,0,0,137.05.56ZM71.29,17.61c-.07,8.74,7.45,8.51,7.45,8.51H89.13a7.84,7.84,0,0,0,6.23-8.07,7.38,7.38,0,0,0-6.23-7.88H78.63S71.35,10.89,71.29,17.61Zm.06-7.16a10.78,10.78,0,0,1,7.34-3.12l10.39.06s9.56,1.54,9.4,10.72c-.14,7.55-5.74,10.56-9.29,10.79H78.57S68,29.28,68.24,17.5V0S71,.06,71.35,1.67C71.38,4.6,71.35,10.45,71.35,10.45ZM37.24,17.61c-.07,8.74,7.45,8.51,7.45,8.51H55.08a7.85,7.85,0,0,0,6.23-8.07,7.38,7.38,0,0,0-6.23-7.88H44.58S37.3,10.89,37.24,17.61Zm.06-7.16a10.77,10.77,0,0,1,7.33-3.12L55,7.39s9.57,1.54,9.41,10.72c-.14,7.55-5.74,10.56-9.29,10.79H44.52s-10.61.38-10.33-11.4V0S37,.06,37.3,1.67C37.32,4.6,37.3,10.45,37.3,10.45Zm105.34,7.1C142.15,29.1,153,28.9,153,28.9H170.4a2.63,2.63,0,0,0-2.19-2.59h-15.1C145.33,25.16,146,19.5,146,19.5l19.14-.1c1.46-.1,5.84-.79,5.8-6.28s-5.8-5.7-5.8-5.7H153.16C142.59,7.89,142.64,17.55,142.64,17.55ZM146,16.39a7.28,7.28,0,0,1,6.52-6.15h12s3.3,0,3.44,2.91c.11,2.46-1.64,3.15-3.44,3.2ZM10.8,28.79c1,.1,8.05-.05,8.05-.05A9.8,9.8,0,0,0,27.93,24c.49,3.43.88,3.73,1.52,4.27s2.65.39,2.65.39L29.84,16.86c-2.06-9.71-9.28-9.47-10.9-9.67s-8,0-8,0C-.25,8.08,0,17.84,0,17.84.25,28.54,9.82,28.69,10.8,28.79ZM3.09,17.93S3,10.38,10.9,10.08a73.91,73.91,0,0,1,8,0c1.72.1,7.56,1.33,7.61,7.81s-4.61,8-7.65,8.09-6.92.1-8,0S3.48,25.4,3.09,17.93Z"/></g></g></svg>