<svg xmlns="http://www.w3.org/2000/svg" viewBox="0 0 1000.27 411.06"><defs><style>.cls-1{fill:#fff;}</style></defs><g id="Layer_2" data-name="Layer 2"><g id="layer"><g id="g3"><path id="path5" class="cls-1" d="M925.45,287.92a4.32,4.32,0,0,1-4.52-4.52V150.87h-45a4.31,4.31,0,0,1-4.52-4.52V128.07a4.32,4.32,0,0,1,4.52-4.53H995.75a4.32,4.32,0,0,1,4.52,4.53v18.28a4.32,4.32,0,0,1-4.52,4.52h-45V283.39a4.32,4.32,0,0,1-4.52,4.53H925.45M580.58,221.75,557,154l-23.84,67.8ZM633,282.57a3.76,3.76,0,0,1-3.49,5.35H608.13c-3.08,0-4.93-1.43-6-4.32L590,248.68H523.66L511.52,283.6c-1,2.89-2.88,4.32-6,4.32H485.42a3.85,3.85,0,0,1-3.5-5.35l55.71-154.91c1-2.89,2.88-4.11,6-4.11h27.55c3.08,0,5.14,1.22,6.17,4.11L633,282.57m159.66-16.85c13.15,0,22-6.35,29.19-17.25l-33.29-35.75c-12.75,7.19-21,14.37-21,28.76,0,14.18,11.51,24.24,25.08,24.24m9.25-120.4c-10.68,0-16.85,6.79-16.85,15.83,0,7,3.69,13.15,12.12,22.19,14.6-8.43,20.77-13.57,20.77-22.6,0-8.43-5.35-15.42-16-15.42M893,282.17c2.67,2.88,1,5.75-2.27,5.75H864.6c-3.49,0-5.34-.83-7.6-3.5l-15.62-17.25c-10.48,14-25.09,24.45-49.34,24.45-30,0-53.65-18.08-53.65-49.1,0-23.84,12.75-36.59,32.07-47.27-9.46-10.89-13.77-22.39-13.77-32.46,0-25.48,17.88-42.94,44.81-42.94,27.54,0,44.4,16.23,44.4,40.27,0,20.55-14.8,32-30.42,40.68l23,24.87,13-22.61c1.64-2.67,3.49-3.7,6.78-3.7h19.93c3.29,0,5.14,2.27,3.1,5.76l-23,39.44L893,282.17m-205.13,5.75a4.32,4.32,0,0,0,4.53-4.52V150.87h45a4.32,4.32,0,0,0,4.52-4.52V128.07a4.32,4.32,0,0,0-4.52-4.53H617.55a4.31,4.31,0,0,0-4.52,4.53v18.28a4.31,4.31,0,0,0,4.52,4.52h45V283.39a4.32,4.32,0,0,0,4.52,4.53Z"/><path id="path9" class="cls-1" d="M79.53,367.86a205.55,205.55,0,0,0,261.53-7.75c.44-.39.22-.64-.21-.39-16.22,10.84-62.44,34.48-135.24,34.48-63.26,0-103.24-14.11-125.82-26.72-.43-.21-.59.11-.26.38m140,10.51c50.6,0,106.2-13.8,139.45-41.1,9.1-7.44,17.77-17.34,25.53-30.65A196.69,196.69,0,0,0,397,280.93c.16-.43-.11-.65-.44-.16-30.92,45.51-120.47,73.9-212.93,73.9-65.36,0-135.68-20.9-163.22-60.81-.27-.37-.54-.21-.37.21,25.65,54.52,103.45,84.3,199.58,84.3m-55.29-90.44c-105.23,0-154.85-49-163.85-82.46-.11-.48-.43-.38-.43.06C0,216.79,1.13,231.32,3.07,241,4,245.66,7.81,253,13.41,258.9c25.49,26.56,89,63.78,199,63.78,149.9,0,184.18-49.93,191.18-66.36,5-11.74,7.59-33,7.59-50.79,0-4.31-.1-7.76-.27-11.14,0-.55-.31-.6-.42-.06C403,234.51,275,287.93,164.28,287.93M19.82,117.36c-6,12-12.71,32.15-14.7,42.6-.87,4.48-.5,6.63,1.07,10,12.61,26.76,76.41,69.58,225.23,69.58,90.79,0,161.32-22.31,172.74-63,2.11-7.49,2.22-15.4-.48-26.06-3-11.92-8.68-25.81-13.46-35.56-.16-.32-.44-.27-.38.1,1.77,53.39-147.1,87.8-222.22,87.8-81.37,0-149.25-32.42-149.25-73.35a50.33,50.33,0,0,1,1.83-12c.11-.37-.21-.43-.38-.1M341.4,51.81a8.33,8.33,0,0,1,1.29,4.74c0,22.84-69.89,63.24-181.15,63.24-81.74,0-97-30.33-97-49.61,0-6.9,2.64-14,8.47-21.12.32-.42.05-.59-.32-.27A206.15,206.15,0,0,0,43.7,78.85C39.61,84,37.07,88.6,37.07,91.34c0,40,100.22,68.95,193.92,68.95,99.85,0,144.41-32.6,144.41-61.24,0-10.24-4-16.21-14.18-27.8a242.89,242.89,0,0,0-19.5-19.71c-.32-.27-.55,0-.32.27M310.79,29A205.43,205.43,0,0,0,99,29.83C89.71,35.54,84.48,40.12,84.48,46c0,17.34,40.52,36,112.4,36,71.13,0,126.3-20.42,126.3-40.07,0-4.7-4.1-8-12.39-12.93"/></g></g></g></svg>