<svg xmlns="http://www.w3.org/2000/svg" viewBox="0 0 5669.29 705.69"><defs><style>.cls-1{fill:#fff;}</style></defs><title>Bridgestone</title><g id="Layer_2" data-name="Layer 2"><g id="Layer_1-2" data-name="Layer 1"><path class="cls-1" d="M2498,394.13l-53.41,202.51c-11.13,0-26.7,4.45-46.73,4.45-104.6,0-93.47-35.6-49-207,44.51-180.26,75.66-215.87,140.2-215.87s64.54,44.51,44.51,100.15h164.68c24.48-106.82,4.45-195.84-180.26-195.84-209.19,0-269.28,44.51-333.81,311.56C2117.49,636.7,2137.51,701.24,2369,701.24c104.59,0,149.1-4.45,213.64-20l80.11-287.08"/><path class="cls-1" d="M2883,590c-20,0-28.93-4.46-24.48-20l40.06-144.66h215.86L3139,329.59H2918.64l24.48-95.69c11.12-26.71,26.7-46.74,60.08-46.74H3179l24.48-95.69h-253.7c-106.82,0-135.75,20-175.8,175.81l-75.67,289.3c-20,100.15,4.45,140.2,84.57,140.2h215.86c44.51,0,69-20,84.57-55.63l20-51.18"/><path class="cls-1" d="M5355.51,590c-20,0-31.16-4.46-26.71-20l35.61-144.66h215.87l24.47-95.69H5388.89l26.7-95.69c4.46-26.71,24.48-46.74,60.09-46.74h169.13l24.48-95.69H5420.05c-104.6,0-135.76,20-175.81,175.81l-75.67,289.3c-24.48,100.15,6.68,140.2,86.79,140.2H5469c44.51,0,71.22-20,84.57-55.63L5569.15,590"/><path class="cls-1" d="M1799.29,596.64h-46.74l106.82-409.48h49c95.7,0,95.7,31.16,51.19,207-46.74,175.81-71.22,202.51-160.23,202.51m140.2-505.17H1719.17L1567.84,676.76c0,8.9,4.45,20,15.58,20h189.16c247,0,284.86-44.5,351.62-302.65C2184.28,167.13,2148.68,91.47,1939.49,91.47Z"/><path class="cls-1" d="M4959.35,91.47H4743.48l-149.1,585.29c-4.45,8.9,0,20,8.9,20h146.88l129.07-509.62h55.64c69,0,80.11,26.71,60.08,95.7l-100.14,393.9c-4.45,8.9,4.45,20,15.58,20h138l111.27-413.92c35.61-140.21-24.48-191.39-200.28-191.39"/><path class="cls-1" d="M3708.66,91.47l-24.48,102.37h160.23c-24.48,20-40.06,49-51.18,73.44l-104.6,409.48c0,8.9,4.45,20,15.58,20H3860l129.07-502.94h80.12c44.51,0,69-22.25,84.57-62.31l15.57-40.06"/><path class="cls-1" d="M1463.25,696.79l149.1-585.29c0-8.9-4.45-20-13.35-20H1447.67L1294.12,676.76c0,8.9,4.45,20,13.35,20"/><path class="cls-1" d="M4285.08,605.54c-71.21,0-80.11-24.48-31.15-215.86,40-155.78,80.11-211.42,140.2-211.42,71.21,0,75.66,40.06,31.15,211.42-40.06,171.35-86.79,215.86-140.2,215.86m133.53-523c-184.71,0-260.38,35.61-333.82,311.56-60.08,242.57-11.12,311.56,173.59,311.56,191.38,0,260.37-40.06,331.58-311.56C4638.92,198.29,4630,82.57,4418.61,82.57Z"/><path class="cls-1" d="M92.36,398.58,188.05,67C197,31.39,232.56.23,272.61.23H557.47c4.45,0,11.12,6.67,4.45,11.13C412.81,111.5,232.56,267.28,103.48,405.26c-6.67,4.45-11.12,0-11.12-6.68"/><path class="cls-1" d="M323.8,601.09l89-327.13a17,17,0,0,0-4.45-11.13c-140.2,122.4-304.88,293.76-405,422.83-4.45,6.67-4.45,11.13,0,11.13h405c169.14,0,260.38-51.19,293.76-182.49,26.7-100.14-24.48-171.36-109-191.38h0c69-13.36,144.66-44.51,169.13-151.33C793.36,55.87,702.12-4.22,602,.23L448.42,545.46c-4.45,31.15-40.06,55.63-71.21,55.63"/><path class="cls-1" d="M1194,454.22c-6.67-20-11.12-28.94-15.57-40.06-4.46-4.45-4.46-4.45,0-4.45,64.53-20,109-66.77,129.07-142.43,26.7-95.69-33.38-175.81-189.16-175.81H889.09L737.76,676.76c-4.45,8.9,0,20,11.13,20H893.54l129.08-509.63h60.08c60.09,0,80.12,35.61,64.54,80.12-13.35,62.31-60.09,95.69-118,95.69h-20l57.86,293.76c11.13,28.93,20,40.06,55.64,40.06h131.3"/><path class="cls-1" d="M3159,489.82c-60.09,151.33,20,215.87,184.71,215.87,144.65,0,229.22-33.38,264.82-171.36,11.13-49,4.45-100.14-24.48-129.07-55.63-62.32-164.68-71.22-200.28-106.82-20-20-20-44.51-15.58-64.54,11.12-40.06,40.05-62.31,80.11-62.31,66.77,0,71.22,42.28,55.64,91.24h140.2C3679.77,158.24,3633,75.89,3463.9,75.89c-140.2,0-220.32,62.32-244.79,166.91-11.13,31.16-4.46,75.66,15.57,106.82,33.38,69,140.2,80.11,200.29,115.72,20,20,24.48,44.51,13.35,69-8.9,51.18-33.38,75.67-84.56,75.67-49,0-80.12-28.94-49-120.18"/></g></g></svg>