<svg xmlns="http://www.w3.org/2000/svg" viewBox="0 0 398.93 126.95"><defs><style>.cls-1{fill:#fff;fill-rule:evenodd;}</style></defs><g id="Layer_2" data-name="Layer 2"><g id="DELL_logotype" data-name="DELL logotype"><path class="cls-1" d="M280,6.94H239.82V46.38L182.94,82.21l-9.61-6.54,55.6-35.33-25.19-16-56.1,35.37-9.77-6.58h0l57.37-36.54L169.14,0,105.75,40.31C95.4,14.14,67.31,6.94,41.16,6.94H0V121.62H54.87c19.14,0,42.52-9.69,51.38-34.68l63.4,40,70.17-44.71v39.39h75.94V85.37H280ZM68.28,64.8c-.15,12.86-8.57,22.39-19.65,22.39H40.54V42.36h7.07c11.08,0,20.52,9.56,20.67,22.42Z"/><polygon class="cls-1" points="195.27 16.6 195.26 16.61 195.38 16.68 195.27 16.6"/><polygon class="cls-1" points="363.17 85.36 363.17 6.93 322.99 6.93 322.99 121.5 398.93 121.5 398.93 85.36 363.17 85.36"/></g></g></svg>