<svg xmlns="http://www.w3.org/2000/svg" viewBox="0 0 255.39 60"><defs><style>.cls-1{fill:#fffffe;}</style></defs><g id="Layer_2" data-name="Layer 2"><g id="layer"><path class="cls-1" d="M148.15,53.4c0,.43.22.64.43.64a.79.79,0,0,0,.64-.21L228.79,2.12A8.83,8.83,0,0,1,233.47.64h17.45a4.27,4.27,0,0,1,4.47,4V38.51c0,4.05-.85,6.38-4.47,8.51L229.64,59.79A.79.79,0,0,1,229,60c-.21,0-.43-.21-.43-.85V20.21c0-.42-.2-.64-.41-.64a.76.76,0,0,0-.64.22l-58.3,37.87a8.4,8.4,0,0,1-4.47,1.28H126a4.27,4.27,0,0,1-4.47-4V6.17c0-.21-.21-.63-.43-.63a.8.8,0,0,0-.64.21L82.19,28.94c-.21,0-.42.42-.42.64s.21.42.42.64l27.46,27.44c.2.21.41.64.63.85,0,.43-.43.43-.85.43H84.33a5.58,5.58,0,0,1-4.47-1.28l-16.6-16.6c-.21-.21-.21-.21-.43-.21s-.42,0-.42.21L34.54,57.87a8.31,8.31,0,0,1-4.47,1.28H4.53a4.28,4.28,0,0,1-4.47-4V21.71a8.48,8.48,0,0,1,4.47-8.52L25.81.43c0-.43.22-.43.43-.43s.43.43.43,1.07v44c0,.42.21.64.42.64s.42-.22.64-.22L100.07,1.92A7.48,7.48,0,0,1,104.75.64h38.72a4.26,4.26,0,0,1,4.47,4V53.4Z"/></g></g></svg>