<svg xmlns="http://www.w3.org/2000/svg" viewBox="0 0 337.6 72"><defs><style>.cls-1{fill:#fff;}</style></defs><g id="Layer_2" data-name="Layer 2"><g id="layer"><path class="cls-1" d="M140.4,14.4V57.6h-7.5V23.7h-.1L119.4,57.6h-5L100.7,23.7h-.1V57.6H93.7V14.4h10.8l12.4,32h.2l13.1-32Zm6.2,3.3a3.8,3.8,0,0,1,1.3-3,4.47,4.47,0,0,1,3.1-1.2,4.38,4.38,0,0,1,3.2,1.2,4.16,4.16,0,0,1,1.3,3,3.8,3.8,0,0,1-1.3,3,4.54,4.54,0,0,1-3.2,1.2,4.14,4.14,0,0,1-3.1-1.2A4.53,4.53,0,0,1,146.6,17.7Zm8.1,8.9v31h-7.3v-31Zm22.1,25.7a8.43,8.43,0,0,0,3.6-.8,15.8,15.8,0,0,0,3.6-2v6.8a12.76,12.76,0,0,1-4,1.5,24.61,24.61,0,0,1-4.9.5c-4.6,0-8.3-1.4-11.1-4.3a14.92,14.92,0,0,1-4.3-11,17.65,17.65,0,0,1,4.4-12.3c2.9-3.2,7-4.8,12.4-4.8a18.41,18.41,0,0,1,4.1.5,13.63,13.63,0,0,1,3.3,1.2v7a14.53,14.53,0,0,0-3.4-1.9,11.49,11.49,0,0,0-3.6-.7,9.12,9.12,0,0,0-7,2.8c-1.8,1.9-2.6,4.4-2.6,7.6a10,10,0,0,0,2.6,7.3A9.35,9.35,0,0,0,176.8,52.3Zm27.9-26.2a8.08,8.08,0,0,1,1.6.1,10.38,10.38,0,0,1,1.2.3v7.4a4.49,4.49,0,0,0-1.7-.8,10.26,10.26,0,0,0-2.7-.4,5.59,5.59,0,0,0-4.5,2.3c-1.2,1.5-1.9,3.8-1.9,7V57.6h-7.3v-31h7.3v4.9h.1a9.42,9.42,0,0,1,3-4A8.81,8.81,0,0,1,204.7,26.1Zm3.2,16.5c0-5.1,1.5-9.2,4.3-12.2s6.9-4.5,12-4.5c4.8,0,8.6,1.4,11.3,4.3s4.1,6.8,4.1,11.7-1.5,9-4.3,12-6.8,4.5-11.8,4.5q-7.2,0-11.4-4.2C209.3,51.3,207.9,47.4,207.9,42.6Zm7.6-.3c0,3.2.7,5.7,2.2,7.4a8,8,0,0,0,6.3,2.6,7.28,7.28,0,0,0,6.1-2.6c1.4-1.7,2.1-4.2,2.1-7.6s-.7-5.8-2.1-7.6a8.35,8.35,0,0,0-12.2.1C216.2,36.5,215.5,39,215.5,42.3Zm35-7.5a3.17,3.17,0,0,0,1,2.5,17.1,17.1,0,0,0,4.4,2.2c2.9,1.2,5,2.5,6.1,3.9a8.1,8.1,0,0,1,1.8,5.3,8.4,8.4,0,0,1-3.4,7c-2.2,1.8-5.3,2.6-9.1,2.6a23.69,23.69,0,0,1-4.3-.5,17.31,17.31,0,0,1-4-1.2V49.4a17.47,17.47,0,0,0,4.3,2.2,13.48,13.48,0,0,0,4.2.8,6.72,6.72,0,0,0,3.6-.7,2.45,2.45,0,0,0,1.2-2.3,3.52,3.52,0,0,0-1.2-2.6,18.47,18.47,0,0,0-4.6-2.4,13.75,13.75,0,0,1-5.7-3.8,8.5,8.5,0,0,1-1.7-5.4,8.52,8.52,0,0,1,3.3-6.9,13.21,13.21,0,0,1,8.6-2.7,15.86,15.86,0,0,1,3.6.4c1.3.3,2.5.6,3.4.9V34a21.54,21.54,0,0,0-3.4-1.7,10.58,10.58,0,0,0-3.8-.7,5.58,5.58,0,0,0-3.2.8A3.19,3.19,0,0,0,250.5,34.8Zm16.4,7.8c0-5.1,1.5-9.2,4.3-12.2s6.9-4.5,12-4.5c4.8,0,8.6,1.4,11.3,4.3s4.1,6.8,4.1,11.7-1.5,9-4.3,12-6.8,4.5-11.8,4.5q-7.2,0-11.4-4.2A16.48,16.48,0,0,1,266.9,42.6Zm7.6-.3c0,3.2.7,5.7,2.2,7.4a8,8,0,0,0,6.3,2.6,7.28,7.28,0,0,0,6.1-2.6c1.4-1.7,2.1-4.2,2.1-7.6s-.7-5.8-2.1-7.6a8.35,8.35,0,0,0-12.2.1A11.45,11.45,0,0,0,274.5,42.3Zm48.4-9.7H312v25h-7.4v-25h-5.2v-6h5.2V22.3a10.78,10.78,0,0,1,11.3-11.1c.9,0,1.7.1,2.4.1a4.78,4.78,0,0,1,1.8.4V18a12.25,12.25,0,0,0-1.3-.5,6.65,6.65,0,0,0-2.1-.3,4.51,4.51,0,0,0-3.5,1.4,6.38,6.38,0,0,0-1.2,4.2v3.7h10.9v-7l7.3-2.2v9.2h7.4v6h-7.4V47a6.66,6.66,0,0,0,1,4,4.16,4.16,0,0,0,3.3,1.2,4.94,4.94,0,0,0,1.5-.3,5.23,5.23,0,0,0,1.5-.7v6a7,7,0,0,1-2.3.7,17.33,17.33,0,0,1-3.2.3q-4.65,0-6.9-2.4c-1.5-1.6-2.3-4.1-2.3-7.4l.1-15.8Z"/><rect class="cls-1" width="34.2" height="34.2"/><rect class="cls-1" x="37.8" width="34.2" height="34.2"/><rect class="cls-1" y="37.8" width="34.2" height="34.2"/><rect class="cls-1" x="37.8" y="37.8" width="34.2" height="34.2"/></g></g></svg>