<svg xmlns="http://www.w3.org/2000/svg" viewBox="0 0 489.71 149.13"><defs><style>.cls-1{fill:#fff;}</style></defs><g id="Layer_2" data-name="Layer 2"><g id="layer"><path class="cls-1" d="M117.47,14.69A72.66,72.66,0,0,0,73.41,0a73.43,73.43,0,0,0-59,117.07A152.62,152.62,0,0,0,117.61,14.69"/><path class="cls-1" d="M134.75,34.85c6.19,20.73-.14,42.48-18.72,56.73C93.85,107.86,61.31,108,16.67,121.82A73.44,73.44,0,0,0,134.75,34.7"/><path id="A" class="cls-1" d="M211.07,50.69c12.38,0,22,10.08,22,23s-9.21,23-21.31,23c-14-.29-22.46-10.08-22.61-22.47,0-13,10.08-23.47,22-23.47m1.44,57.31a33,33,0,0,0,23.48-9.64A34.57,34.57,0,0,0,245.92,74c0-19.59-15.12-34.85-34.27-34.85-15.84,0-28.8,10.37-33.12,25.63a77.25,77.25,0,0,0-1.44,15.84v48.67a1.44,1.44,0,0,0,1.44,1.44h8.64a1.45,1.45,0,0,0,1.44-1.44V98.64a33.72,33.72,0,0,0,21.88,9.5"/><path class="cls-1" d="M290.27,70.85l-8.64-.43A41,41,0,0,0,267.23,73v-.43c1-10.08,9.5-18.72,19.87-20.16l2.88-.15c9.79,0,19.15,7.2,22,17.28h0c-7.2,2.16-13.68,2-21.88,1.44Zm33.12.14c-2.88-21.31-20.59-30.67-33.12-30.24-25.49.58-36,22.32-33.7,39.31,2,17.43,16.42,29.67,33.7,29.67,1.44,0,2.88-.15,4.32-.29,9.22-1.15,17.28-5,23.33-12.53a1.61,1.61,0,0,0-.29-2.59c-2.59-1.44-7.92-4-7.92-4a2.1,2.1,0,0,0-2.88.29c-10.8,13-31.68,9.07-38-6.77v-.29c6.48-2.88,12.24-2.59,19.3-1.44s13.25,1.44,19.58.43c10.52-2,14.69-5,14.69-5,1.44-1,1.44-1.73,1.44-3.17m86,23.91c7.49,6.91,15.84,10.8,26.35,10.8h.29c18.43-.15,26.64-10.08,26.64-20.16,0-13.68-13-17.28-16.85-18.29-4.32-.86-9.36-1.73-13.53-2.88-2.16-.58-9.08-2.88-9.08-8.06,0-5.76,6.34-8.64,12.24-8.64,5,0,9.08.86,14.4,5a2.63,2.63,0,0,0,3.32.14L459.33,51c1-1,.72-1.88-.29-2.88-7.2-5.76-14-7.92-23.62-7.92h0c-13.82,0-24.19,8.92-24.19,20.59,0,9.36,7.63,15.84,21.6,18.72l8.64,1.73c5.76,1,8.93,4,8.64,8.35-4.75,13.68-23.47,8.93-31.39,1.15h-.15c-1-.86-1.44-.86-2.59-.14l-6.91,5.76c-.72.86-.43,1.44.29,2.3m78.19-55.15a1.43,1.43,0,0,0-1.44-1.44h-8.64A1.44,1.44,0,0,0,476,43.49v61.92a1.45,1.45,0,0,0,1.44,1.44h8.64a1.44,1.44,0,0,0,1.44-1.44V43.49"/><circle class="cls-1" cx="481.79" cy="27.65" r="7.92"/><path id="A-2" data-name="A" class="cls-1" d="M366.59,50.69c12.38,0,22,10.08,22,23s-9.21,23-21.31,23c-14-.29-22.46-10.08-22.61-22.47,0-13,10.08-23.47,22-23.47m1.44,57.31a33,33,0,0,0,23.48-9.64A34.57,34.57,0,0,0,401.44,74c0-19.59-15.12-34.85-34.27-34.85-15.84,0-28.8,10.37-33.12,25.63a77.25,77.25,0,0,0-1.44,15.84v48.67a1.44,1.44,0,0,0,1.44,1.44h8.64a1.45,1.45,0,0,0,1.44-1.44V98.64a33.72,33.72,0,0,0,21.88,9.5"/></g></g></svg>