<svg xmlns="http://www.w3.org/2000/svg" viewBox="0 0 537.31 121.23"><defs><style>.cls-1{fill:#fff;}</style></defs><g id="Layer_2" data-name="Layer 2"><g id="layer"><path id="path3277" class="cls-1" d="M0,39.08S.12,3.47,43.24,3.47c61.87,0,60.88,89,1.25,89-12.12,0-21.18-3.06-26.74-7.51v35.5H0ZM43.35,23.49c-30.14,0-30.52,47.45,0,47.45S73.49,23.49,43.35,23.49Z"/><path id="path3279" class="cls-1" d="M236.22,84.82s.11,35.62,43.24,35.62c61.4,0,58.81-89,1.25-89-12.12,0-21.18,3.06-26.74,7.51V3.47H236.22V84.82Zm43.35,15.59c-30.2,0-30.54-47.45,0-47.45S309.81,100.41,279.57,100.41Z"/><path id="path3281" class="cls-1" d="M121.15,92l0-56h20.22l.12,56s3.37,12,17.75,12c14.15,0,20.37-12,20.37-12l.11-56H198.4V92s-4.39,29.24-38.23,29.24C126.12,121.23,121.15,92,121.15,92Z"/><path id="path3283" class="cls-1" d="M356.81,6h20.25V120.44H356.81Z"/><path id="path3285" class="cls-1" d="M413.7,36.46H434v84H413.7Z"/><path id="path3287" class="cls-1" d="M437.18,12.4A12.4,12.4,0,1,1,424.78,0a12.4,12.4,0,0,1,12.4,12.4Z"/><path id="path3289" class="cls-1" d="M491.9,77.37,466.46,36.69h22.76L500.82,57l11.5-20.26h20.25L512.21,77.31l25.1,43.13H517.22L503.39,97.68l-11.66,22.76H469Z"/></g></g></svg>