<svg xmlns="http://www.w3.org/2000/svg" viewBox="0 0 657.2 145.7"><defs><style>.cls-1{fill:#fff;}</style></defs><g id="Layer_2" data-name="Layer 2"><g id="Layer_1-2" data-name="Layer 1"><polygon class="cls-1" points="642.7 0 606.8 76.8 593.3 47.7 578.7 47.7 600.9 95.3 612.7 95.3 657.2 0 642.7 0"/><path class="cls-1" d="M488.7,142.6h28.9V89.7c0-12.1,7-20.6,17.4-20.6,10,0,15.2,7,15.2,17.1v56.4h28.9V80.7c0-21-12.6-35.8-33-35.8-13,0-22.1,5.6-28.9,15.8h-.6v-13h-28l.1,94.9ZM431.9,45.1c-30.2,0-50.4,21.7-50.4,50.3,0,28.4,20.2,50.3,50.4,50.3s50.4-21.9,50.4-50.3C482.4,66.8,462.1,45.1,431.9,45.1Zm-.2,79.2c-13.7,0-21-11.5-21-28.9,0-17.6,7.2-28.9,21-28.9S453,77.8,453,95.4C453.1,112.8,445.5,124.3,431.7,124.3ZM299.1,142.6h81.2V119.8h-46v-.6l44-49.3V47.6H299.1V70.5h44.5v.6l-44.5,49.7v21.8Zm-37.1,0h29.1V47.7H262Zm-67.5,0h29V99c0-19.8,11.9-28.6,30-26.1h.6v-25c-1.5-.6-3.2-.7-5.9-.7-11.3,0-18.9,5.2-25.4,16.3h-.6V47.7H194.5v94.9Zm-53.2-18.2c-12.8,0-20.6-8.3-22.1-21.1h68.4c.2-20.4-5.2-36.7-16.5-46.9-8-7.4-18.5-11.5-31.9-11.5-28.6,0-48.4,21.7-48.4,50.1,0,28.6,18.9,50.4,50.3,50.4,11.9,0,21.3-3.2,29.1-8.5,8.3-5.7,14.3-14.1,15.9-22.4H158.3C155.6,120.7,149.8,124.4,141.3,124.4Zm-1.5-58.8c10.2,0,17.2,7.6,18.4,18.7H119.4C121.7,73.1,127.8,65.6,139.8,65.6ZM33,142.6H63.4l33-94.9H67.3l-18.5,61h-.4l-18.5-61H0ZM262,13.9h29.1V39.7H262Z"/></g></g></svg>