<svg width="24" height="24" viewBox="0 0 24 24" fill="none" xmlns="http://www.w3.org/2000/svg">
<path d="M10.12 22C11.5765 21.8751 12.9674 21.3388 14.1307 20.4535C15.2939 19.5682 16.1815 18.3705 16.69 17C17.0844 15.9786 17.2417 14.881 17.15 13.79C17.1187 13.3146 17.1921 12.8381 17.3649 12.394C17.5376 11.95 17.8056 11.5493 18.15 11.22L18.76 10.61C19.3542 10.0168 19.7406 9.24727 19.8614 8.41636C19.9821 7.58545 19.8308 6.73778 19.43 5.99998L21.71 3.71998L20.29 2.28998L18 4.54998C17.2706 4.11274 16.4162 3.93138 15.5721 4.03462C14.728 4.13787 13.9425 4.51983 13.34 5.11998L12.59 5.86998C12.2679 6.20986 11.8756 6.47542 11.4404 6.64813C11.0051 6.82083 10.5375 6.89654 10.07 6.86998C8.93353 6.78891 7.79434 6.9845 6.74999 7.43998C5.41445 7.99738 4.26166 8.9176 3.42216 10.0964C2.58267 11.2753 2.09002 12.6656 1.99999 14.11C1.95507 15.1779 2.1362 16.2432 2.53152 17.2362C2.92684 18.2293 3.52744 19.1276 4.29399 19.8725C5.06055 20.6173 5.97578 21.1918 6.97976 21.5585C7.98374 21.9251 9.05384 22.0756 10.12 22ZM9.49999 9.24998V10.75C8.50543 10.75 7.5516 11.1451 6.84834 11.8483C6.14508 12.5516 5.74999 13.5054 5.74999 14.5H4.24999C4.25264 13.1084 4.80661 11.7746 5.7906 10.7906C6.7746 9.80659 8.10842 9.25262 9.49999 9.24998Z" fill="white"/>
</svg>
